<?xml version="1.0" standalone="no"?>
<!DOCTYPE svg PUBLIC "-//W3C//DTD SVG 20010904//EN"
 "http://www.w3.org/TR/2001/REC-SVG-20010904/DTD/svg10.dtd">
<svg version="1.0" xmlns="http://www.w3.org/2000/svg"
 width="700.000000pt" height="700.000000pt" viewBox="0 0 700.000000 700.000000"
 preserveAspectRatio="xMidYMid meet">
<metadata>
Created by potrace 1.14, written by Peter Selinger 2001-2017
</metadata>
<g transform="translate(0.000000,700.000000) scale(0.100000,-0.100000)"
fill="#000000" stroke="none">
<path d="M2620 6993 c-390 -37 -739 -136 -1064 -302 -120 -62 -111 -57 -221
-125 -320 -199 -629 -497 -848 -818 -137 -202 -263 -456 -342 -695 -35 -106
-88 -309 -99 -387 -4 -21 -8 -48 -11 -60 -2 -12 -7 -41 -9 -66 -3 -25 -9 -74
-13 -110 -10 -81 -10 -440 -1 -540 33 -351 126 -677 284 -993 53 -106 132
-247 145 -257 3 -3 12 -16 19 -30 40 -77 231 -311 365 -446 251 -253 445 -395
755 -553 177 -90 459 -195 584 -217 16 -3 33 -7 37 -10 5 -3 25 -7 46 -10 21
-2 53 -9 73 -13 31 -8 80 -16 170 -27 202 -25 565 -24 720 1 14 2 54 9 90 15
36 5 77 12 92 15 52 10 313 77 323 83 6 4 15 7 20 8 78 13 457 188 599 278 49
31 93 55 97 54 5 -2 390 -383 856 -848 774 -772 854 -849 913 -877 162 -79
318 -81 492 -9 30 13 124 80 153 111 159 164 197 418 94 633 -30 62 -94 128
-878 915 -465 466 -847 851 -849 856 -1 4 27 57 63 117 226 373 362 788 402
1229 14 156 9 425 -13 610 -44 386 -198 804 -429 1165 -47 73 -175 249 -205
281 -8 9 -30 33 -49 55 -319 374 -795 688 -1271 840 -90 29 -297 80 -360 89
-24 4 -47 8 -50 10 -3 1 -34 6 -70 10 -36 3 -78 9 -95 11 -35 6 -464 11 -515
7z m400 -1097 c41 -4 82 -9 90 -11 8 -2 31 -7 50 -10 125 -21 306 -82 450
-152 65 -32 276 -164 290 -182 3 -3 21 -18 40 -32 49 -37 187 -174 235 -234
22 -27 43 -52 46 -55 4 -3 34 -48 68 -100 111 -168 216 -408 245 -560 2 -14
10 -50 16 -80 33 -166 36 -464 5 -625 -70 -368 -221 -659 -478 -924 -86 -88
-131 -126 -245 -209 -174 -126 -482 -255 -677 -285 -16 -3 -46 -7 -65 -11 -19
-3 -55 -8 -80 -11 -52 -6 -313 -7 -350 -1 -14 3 -43 7 -65 10 -325 42 -636
181 -892 398 -332 281 -547 674 -606 1107 -13 98 -15 385 -2 451 2 14 6 39 9
55 4 27 16 88 30 153 10 47 76 230 105 292 104 221 213 373 384 535 128 122
129 123 242 197 346 228 731 323 1155 284z"/>
</g>
</svg>
